<svg xmlns="http://www.w3.org/2000/svg" width="1180" height="1024" viewBox="0 0 1180 1024"><rect width="1180" height="1024" fill="#f5f7fa"/><text x="40" y="52" font-family="DejaVu Sans, Arial, sans-serif" font-size="22" font-weight="bold" fill="#16202c">NPS dashboard</text><text x="40" y="74" font-family="DejaVu Sans, Arial, sans-serif" font-size="13" fill="#6b7787">LimeChat · CRM · Marketing · Bot — 2025-08 → 2026-07</text><rect x="780" y="34" width="120" height="30" rx="8" fill="#ffffff" stroke="#e6e9ef"/><text x="840" y="54" font-family="DejaVu Sans, Arial, sans-serif" font-size="12" fill="#16202c" text-anchor="middle">Manage access</text><text x="925" y="53" font-family="DejaVu Sans, Arial, sans-serif" font-size="13" fill="#16202c">utkarsh@limechat.ai</text><rect x="1045" y="40" width="46" height="18" rx="9" fill="#eef4ff"/><text x="1068" y="53" font-family="DejaVu Sans, Arial, sans-serif" font-size="11" font-weight="bold" fill="#2a5bd7" text-anchor="middle">admin</text><rect x="1098" y="34" width="42" height="30" rx="8" fill="#ffffff" stroke="#e6e9ef"/><text x="1119" y="54" font-family="DejaVu Sans, Arial, sans-serif" font-size="12" fill="#16202c" text-anchor="middle">Exit</text><rect x="40" y="98" width="360" height="34" rx="10" fill="#ffffff" stroke="#e6e9ef"/><rect x="40" y="98" width="112.4" height="34" rx="10" fill="#1fa97a"/><text x="96.2" y="120" font-family="DejaVu Sans, Arial, sans-serif" font-size="13" fill="#fff" text-anchor="middle">All products</text><text x="176.20000000000002" y="120" font-family="DejaVu Sans, Arial, sans-serif" font-size="13" fill="#6b7787" text-anchor="middle">CRM</text><text x="245.4" y="120" font-family="DejaVu Sans, Arial, sans-serif" font-size="13" fill="#6b7787" text-anchor="middle">Marketing</text><text x="314.6" y="120" font-family="DejaVu Sans, Arial, sans-serif" font-size="13" fill="#6b7787" text-anchor="middle">Bot</text><rect x="412" y="98" width="160" height="34" rx="10" fill="#ffffff" stroke="#e6e9ef"/><text x="428" y="120" font-family="DejaVu Sans, Arial, sans-serif" font-size="12" fill="#16202c">Aug 2025 → Jul 2026</text><rect x="990" y="98" width="150" height="34" rx="10" fill="#ffffff" stroke="#e6e9ef"/><text x="1065" y="120" font-family="DejaVu Sans, Arial, sans-serif" font-size="12" fill="#16202c" text-anchor="middle">⬇ Export all (CSV)</text><rect x="40" y="152" width="263" height="118" rx="14" fill="#ffffff" stroke="#e6e9ef"/><text x="58" y="178" font-family="DejaVu Sans, Arial, sans-serif" font-size="11" fill="#6b7787">NPS SCORE</text><text x="58" y="218" font-family="DejaVu Sans, Arial, sans-serif" font-size="34" font-weight="bold" fill="#16202c">41</text><rect x="58" y="232" width="46" height="18" rx="9" fill="#eef4ff"/><text x="81" y="245" font-family="DejaVu Sans, Arial, sans-serif" font-size="11" font-weight="bold" fill="#2a5bd7" text-anchor="middle">Good</text><text x="112" y="245" font-family="DejaVu Sans, Arial, sans-serif" font-size="12" fill="#1fa97a">+8 vs prev</text><rect x="319" y="152" width="263" height="118" rx="14" fill="#ffffff" stroke="#e6e9ef"/><text x="337" y="178" font-family="DejaVu Sans, Arial, sans-serif" font-size="11" fill="#6b7787">RESPONSES</text><text x="337" y="218" font-family="DejaVu Sans, Arial, sans-serif" font-size="34" font-weight="bold" fill="#16202c">517</text><text x="337" y="245" font-family="DejaVu Sans, Arial, sans-serif" font-size="12" fill="#6b7787">Response rate ~72% · 718 prompted</text><rect x="598" y="152" width="263" height="118" rx="14" fill="#ffffff" stroke="#e6e9ef"/><text x="616" y="178" font-family="DejaVu Sans, Arial, sans-serif" font-size="11" fill="#6b7787">MIX</text><rect x="616" y="192" width="120.31" height="12" fill="#1fa97a"/><rect x="736.31" y="192" width="77.18" height="12" fill="#e0a500"/><rect x="813.49" y="192" width="29.51" height="12" fill="#e5533c"/><text x="616" y="226" font-family="DejaVu Sans, Arial, sans-serif" font-size="11" fill="#6b7787">Prom 53%   Pass 34%   Detr 13%</text><rect x="877" y="152" width="263" height="118" rx="14" fill="#ffffff" stroke="#e6e9ef"/><text x="895" y="178" font-family="DejaVu Sans, Arial, sans-serif" font-size="11" fill="#6b7787">PROMOTERS − DETRACTORS</text><text x="895" y="218" font-family="DejaVu Sans, Arial, sans-serif" font-size="34" font-weight="bold" fill="#16202c">274 / 68</text><text x="895" y="245" font-family="DejaVu Sans, Arial, sans-serif" font-size="12" fill="#6b7787">175 passives (excluded)</text><rect x="40" y="294" width="1100" height="300" rx="14" fill="#ffffff" stroke="#e6e9ef"/><text x="58" y="322" font-family="DejaVu Sans, Arial, sans-serif" font-size="15" font-weight="bold" fill="#16202c">NPS trend</text><text x="58" y="340" font-family="DejaVu Sans, Arial, sans-serif" font-size="12" fill="#6b7787">Monthly, 12 periods</text><rect x="948" y="308" width="180" height="30" rx="9" fill="#f5f7fa" stroke="#e6e9ef"/><text x="990" y="328" font-family="DejaVu Sans, Arial, sans-serif" font-size="12" fill="#6b7787" text-anchor="middle">Overall</text><rect x="1038" y="310" width="86" height="26" rx="8" fill="#1fa97a"/><text x="1081" y="328" font-family="DejaVu Sans, Arial, sans-serif" font-size="12" fill="#fff" text-anchor="middle">By product</text><line x1="96" y1="360" x2="1106" y2="360" stroke="#eef1f5"/><text x="86" y="364" font-family="DejaVu Sans, Arial, sans-serif" font-size="11" fill="#6b7787" text-anchor="end">100</text><line x1="96" y1="405" x2="1106" y2="405" stroke="#eef1f5"/><text x="86" y="409" font-family="DejaVu Sans, Arial, sans-serif" font-size="11" fill="#6b7787" text-anchor="end">50</text><line x1="96" y1="450" x2="1106" y2="450" stroke="#c4ccd6"/><text x="86" y="454" font-family="DejaVu Sans, Arial, sans-serif" font-size="11" fill="#6b7787" text-anchor="end">0</text><line x1="96" y1="495" x2="1106" y2="495" stroke="#eef1f5"/><text x="86" y="499" font-family="DejaVu Sans, Arial, sans-serif" font-size="11" fill="#6b7787" text-anchor="end">-50</text><line x1="96" y1="540" x2="1106" y2="540" stroke="#eef1f5"/><text x="86" y="544" font-family="DejaVu Sans, Arial, sans-serif" font-size="11" fill="#6b7787" text-anchor="end">-100</text><text x="96" y="562" font-family="DejaVu Sans, Arial, sans-serif" font-size="10" fill="#6b7787" text-anchor="middle">25-08</text><text x="279.6363636363636" y="562" font-family="DejaVu Sans, Arial, sans-serif" font-size="10" fill="#6b7787" text-anchor="middle">25-10</text><text x="463.2727272727273" y="562" font-family="DejaVu Sans, Arial, sans-serif" font-size="10" fill="#6b7787" text-anchor="middle">25-12</text><text x="646.9090909090909" y="562" font-family="DejaVu Sans, Arial, sans-serif" font-size="10" fill="#6b7787" text-anchor="middle">26-02</text><text x="830.5454545454546" y="562" font-family="DejaVu Sans, Arial, sans-serif" font-size="10" fill="#6b7787" text-anchor="middle">26-04</text><text x="1014.1818181818181" y="562" font-family="DejaVu Sans, Arial, sans-serif" font-size="10" fill="#6b7787" text-anchor="middle">26-06</text><polyline points="96.0,412.2 187.8,360.0 279.6,386.1 371.5,422.1 463.3,399.6 555.1,399.6 646.9,423.0 738.7,417.6 830.5,370.8 922.4,386.1 1014.2,442.8 1106.0,415.8" fill="none" stroke="#1fa97a" stroke-width="2" stroke-linejoin="round" stroke-linecap="round"/><polyline points="96.0,407.7 187.8,431.1 279.6,389.7 371.5,420.3 463.3,405.0 555.1,442.8 646.9,408.6 738.7,431.1 830.5,405.0 922.4,402.3 1014.2,423.9 1106.0,427.5" fill="none" stroke="#e0a500" stroke-width="2" stroke-linejoin="round" stroke-linecap="round"/><polyline points="96.0,396.0 187.8,425.7 279.6,422.1 371.5,417.6 463.3,441.0 555.1,432.9 646.9,386.1 738.7,456.3 830.5,422.1 922.4,402.3 1014.2,423.9 1106.0,414.0" fill="none" stroke="#3a6df0" stroke-width="2" stroke-linejoin="round" stroke-linecap="round"/><rect x="846" y="358" width="12" height="4" fill="#1fa97a"/><text x="864" y="363" font-family="DejaVu Sans, Arial, sans-serif" font-size="11" fill="#6b7787">CRM</text><rect x="916" y="358" width="12" height="4" fill="#e0a500"/><text x="934" y="363" font-family="DejaVu Sans, Arial, sans-serif" font-size="11" fill="#6b7787">Marketing</text><rect x="1016" y="358" width="12" height="4" fill="#3a6df0"/><text x="1034" y="363" font-family="DejaVu Sans, Arial, sans-serif" font-size="11" fill="#6b7787">Bot</text><text x="40" y="624" font-family="DejaVu Sans, Arial, sans-serif" font-size="15" font-weight="bold" fill="#16202c">Accounts</text><rect x="40" y="640" width="1100" height="396" rx="14" fill="#ffffff" stroke="#e6e9ef"/><text x="58" y="668" font-family="DejaVu Sans, Arial, sans-serif" font-size="11" fill="#6b7787">ACCOUNT</text><text x="470" y="668" font-family="DejaVu Sans, Arial, sans-serif" font-size="11" fill="#6b7787">NPS</text><text x="580" y="668" font-family="DejaVu Sans, Arial, sans-serif" font-size="11" fill="#6b7787">CRM</text><text x="690" y="668" font-family="DejaVu Sans, Arial, sans-serif" font-size="11" fill="#6b7787">MARKETING</text><text x="830" y="668" font-family="DejaVu Sans, Arial, sans-serif" font-size="11" fill="#6b7787">BOT</text><text x="930" y="668" font-family="DejaVu Sans, Arial, sans-serif" font-size="11" fill="#6b7787">RESPONSES</text><text x="1060" y="668" font-family="DejaVu Sans, Arial, sans-serif" font-size="11" fill="#6b7787">LATEST</text><line x1="40" y1="684" x2="1140" y2="684" stroke="#e6e9ef"/><text x="58" y="707" font-family="DejaVu Sans, Arial, sans-serif" font-size="13" font-weight="bold" fill="#16202c">BlueCart Grocery</text><text x="58" y="722" font-family="DejaVu Sans, Arial, sans-serif" font-size="10" fill="#6b7787">acc_12010</text><text x="470" y="715" font-family="DejaVu Sans, Arial, sans-serif" font-size="13" font-weight="bold" fill="#1fa97a">61</text><text x="580" y="715" font-family="DejaVu Sans, Arial, sans-serif" font-size="13" font-weight="bold" fill="#1fa97a">57</text><text x="690" y="715" font-family="DejaVu Sans, Arial, sans-serif" font-size="13" font-weight="bold" fill="#1fa97a">73</text><text x="830" y="715" font-family="DejaVu Sans, Arial, sans-serif" font-size="13" font-weight="bold" fill="#1fa97a">52</text><text x="930" y="715" font-family="DejaVu Sans, Arial, sans-serif" font-size="13" fill="#16202c">10</text><text x="1060" y="715" font-family="DejaVu Sans, Arial, sans-serif" font-size="13" fill="#16202c">10</text><line x1="40" y1="728" x2="1140" y2="728" stroke="#e6e9ef"/><rect x="41" y="728" width="1098" height="44" fill="#fafbfc"/><text x="58" y="751" font-family="DejaVu Sans, Arial, sans-serif" font-size="13" font-weight="bold" fill="#16202c">Nova Cosmetics</text><text x="58" y="766" font-family="DejaVu Sans, Arial, sans-serif" font-size="10" fill="#6b7787">acc_10877</text><text x="470" y="759" font-family="DejaVu Sans, Arial, sans-serif" font-size="13" font-weight="bold" fill="#1fa97a">56</text><text x="580" y="759" font-family="DejaVu Sans, Arial, sans-serif" font-size="13" font-weight="bold" fill="#1fa97a">67</text><text x="690" y="759" font-family="DejaVu Sans, Arial, sans-serif" font-size="13" font-weight="bold" fill="#e0a500">36</text><text x="830" y="759" font-family="DejaVu Sans, Arial, sans-serif" font-size="13" font-weight="bold" fill="#1fa97a">57</text><text x="930" y="759" font-family="DejaVu Sans, Arial, sans-serif" font-size="13" fill="#16202c">8</text><text x="1060" y="759" font-family="DejaVu Sans, Arial, sans-serif" font-size="13" fill="#16202c">8</text><line x1="40" y1="772" x2="1140" y2="772" stroke="#e6e9ef"/><text x="58" y="795" font-family="DejaVu Sans, Arial, sans-serif" font-size="13" font-weight="bold" fill="#16202c">Maple &amp; Co</text><text x="58" y="810" font-family="DejaVu Sans, Arial, sans-serif" font-size="10" fill="#6b7787">acc_12701</text><text x="470" y="803" font-family="DejaVu Sans, Arial, sans-serif" font-size="13" font-weight="bold" fill="#1fa97a">54</text><text x="580" y="803" font-family="DejaVu Sans, Arial, sans-serif" font-size="13" font-weight="bold" fill="#1fa97a">55</text><text x="690" y="803" font-family="DejaVu Sans, Arial, sans-serif" font-size="13" font-weight="bold" fill="#1fa97a">58</text><text x="830" y="803" font-family="DejaVu Sans, Arial, sans-serif" font-size="13" font-weight="bold" fill="#e0a500">48</text><text x="930" y="803" font-family="DejaVu Sans, Arial, sans-serif" font-size="13" fill="#16202c">8</text><text x="1060" y="803" font-family="DejaVu Sans, Arial, sans-serif" font-size="13" fill="#16202c">8</text><line x1="40" y1="816" x2="1140" y2="816" stroke="#e6e9ef"/><rect x="41" y="816" width="1098" height="44" fill="#fafbfc"/><text x="58" y="839" font-family="DejaVu Sans, Arial, sans-serif" font-size="13" font-weight="bold" fill="#16202c">Acme Retail</text><text x="58" y="854" font-family="DejaVu Sans, Arial, sans-serif" font-size="10" fill="#6b7787">acc_10432</text><text x="470" y="847" font-family="DejaVu Sans, Arial, sans-serif" font-size="13" font-weight="bold" fill="#1fa97a">50</text><text x="580" y="847" font-family="DejaVu Sans, Arial, sans-serif" font-size="13" font-weight="bold" fill="#1fa97a">70</text><text x="690" y="847" font-family="DejaVu Sans, Arial, sans-serif" font-size="13" font-weight="bold" fill="#e0a500">36</text><text x="830" y="847" font-family="DejaVu Sans, Arial, sans-serif" font-size="13" font-weight="bold" fill="#e0a500">46</text><text x="930" y="847" font-family="DejaVu Sans, Arial, sans-serif" font-size="13" fill="#16202c">9</text><text x="1060" y="847" font-family="DejaVu Sans, Arial, sans-serif" font-size="13" fill="#16202c">9</text><line x1="40" y1="860" x2="1140" y2="860" stroke="#e6e9ef"/><text x="58" y="883" font-family="DejaVu Sans, Arial, sans-serif" font-size="13" font-weight="bold" fill="#16202c">Urban Threads</text><text x="58" y="898" font-family="DejaVu Sans, Arial, sans-serif" font-size="10" fill="#6b7787">acc_11845</text><text x="470" y="891" font-family="DejaVu Sans, Arial, sans-serif" font-size="13" font-weight="bold" fill="#e0a500">33</text><text x="580" y="891" font-family="DejaVu Sans, Arial, sans-serif" font-size="13" font-weight="bold" fill="#e0a500">44</text><text x="690" y="891" font-family="DejaVu Sans, Arial, sans-serif" font-size="13" font-weight="bold" fill="#e0a500">26</text><text x="830" y="891" font-family="DejaVu Sans, Arial, sans-serif" font-size="13" font-weight="bold" fill="#e0a500">28</text><text x="930" y="891" font-family="DejaVu Sans, Arial, sans-serif" font-size="13" fill="#16202c">7</text><text x="1060" y="891" font-family="DejaVu Sans, Arial, sans-serif" font-size="13" fill="#16202c">7</text><line x1="40" y1="904" x2="1140" y2="904" stroke="#e6e9ef"/><rect x="41" y="904" width="1098" height="44" fill="#fafbfc"/><text x="58" y="927" font-family="DejaVu Sans, Arial, sans-serif" font-size="13" font-weight="bold" fill="#16202c">Coastal Pharma</text><text x="58" y="942" font-family="DejaVu Sans, Arial, sans-serif" font-size="10" fill="#6b7787">acc_13122</text><text x="470" y="935" font-family="DejaVu Sans, Arial, sans-serif" font-size="13" font-weight="bold" fill="#e0a500">33</text><text x="580" y="935" font-family="DejaVu Sans, Arial, sans-serif" font-size="13" font-weight="bold" fill="#e0a500">44</text><text x="690" y="935" font-family="DejaVu Sans, Arial, sans-serif" font-size="13" font-weight="bold" fill="#e0a500">25</text><text x="830" y="935" font-family="DejaVu Sans, Arial, sans-serif" font-size="13" font-weight="bold" fill="#e0a500">31</text><text x="930" y="935" font-family="DejaVu Sans, Arial, sans-serif" font-size="13" fill="#16202c">9</text><text x="1060" y="935" font-family="DejaVu Sans, Arial, sans-serif" font-size="13" fill="#16202c">9</text><line x1="40" y1="948" x2="1140" y2="948" stroke="#e6e9ef"/><text x="58" y="971" font-family="DejaVu Sans, Arial, sans-serif" font-size="13" font-weight="bold" fill="#16202c">Peak Nutrition</text><text x="58" y="986" font-family="DejaVu Sans, Arial, sans-serif" font-size="10" fill="#6b7787">acc_11290</text><text x="470" y="979" font-family="DejaVu Sans, Arial, sans-serif" font-size="13" font-weight="bold" fill="#e0a500">22</text><text x="580" y="979" font-family="DejaVu Sans, Arial, sans-serif" font-size="13" font-weight="bold" fill="#1fa97a">62</text><text x="690" y="979" font-family="DejaVu Sans, Arial, sans-serif" font-size="13" font-weight="bold" fill="#e0a500">23</text><text x="830" y="979" font-family="DejaVu Sans, Arial, sans-serif" font-size="13" font-weight="bold" fill="#e5533c">-14</text><text x="930" y="979" font-family="DejaVu Sans, Arial, sans-serif" font-size="13" fill="#16202c">5</text><text x="1060" y="979" font-family="DejaVu Sans, Arial, sans-serif" font-size="13" fill="#16202c">5</text><line x1="40" y1="992" x2="1140" y2="992" stroke="#e6e9ef"/><rect x="41" y="992" width="1098" height="44" fill="#fafbfc"/><text x="58" y="1015" font-family="DejaVu Sans, Arial, sans-serif" font-size="13" font-weight="bold" fill="#16202c">Zenith Electronics</text><text x="58" y="1030" font-family="DejaVu Sans, Arial, sans-serif" font-size="10" fill="#6b7787">acc_12388</text><text x="470" y="1023" font-family="DejaVu Sans, Arial, sans-serif" font-size="13" font-weight="bold" fill="#e0a500">20</text><text x="580" y="1023" font-family="DejaVu Sans, Arial, sans-serif" font-size="13" font-weight="bold" fill="#e0a500">26</text><text x="690" y="1023" font-family="DejaVu Sans, Arial, sans-serif" font-size="13" font-weight="bold" fill="#e0a500">19</text><text x="830" y="1023" font-family="DejaVu Sans, Arial, sans-serif" font-size="13" font-weight="bold" fill="#e0a500">14</text><text x="930" y="1023" font-family="DejaVu Sans, Arial, sans-serif" font-size="13" fill="#16202c">10</text><text x="1060" y="1023" font-family="DejaVu Sans, Arial, sans-serif" font-size="13" fill="#16202c">10</text></svg>