<svg xmlns="http://www.w3.org/2000/svg" width="1180" height="680" viewBox="0 0 1180 680"><rect width="1180" height="680" fill="#eef1f6"/><rect x="0" y="0" width="1180" height="56" fill="#ffffff"/><text x="40" y="35" font-family="DejaVu Sans, Arial, sans-serif" font-size="16" font-weight="bold" fill="#16202c">LimeChat CRM</text><rect x="40" y="88" width="360" height="24" rx="6" fill="#dfe4ec"/><rect x="40" y="128" width="720" height="14" rx="6" fill="#e6e9ef"/><rect x="40" y="152" width="640" height="14" rx="6" fill="#e6e9ef"/><rect x="40" y="176" width="700" height="14" rx="6" fill="#e6e9ef"/><rect x="40" y="230" width="340" height="200" rx="12" fill="#ffffff" stroke="#e6e9ef"/><rect x="410" y="230" width="340" height="200" rx="12" fill="#ffffff" stroke="#e6e9ef"/><rect x="796" y="406" width="360" height="250" rx="16" fill="#ffffff" stroke="#e6e9ef"/><text x="816" y="444" font-family="DejaVu Sans, Arial, sans-serif" font-size="14.5" font-weight="bold" fill="#16202c">How likely are you to recommend</text><text x="816" y="464" font-family="DejaVu Sans, Arial, sans-serif" font-size="14.5" font-weight="bold" fill="#16202c">LimeChat CRM to a friend or</text><text x="816" y="484" font-family="DejaVu Sans, Arial, sans-serif" font-size="14.5" font-weight="bold" fill="#16202c">colleague?</text><text x="1136" y="434" font-family="DejaVu Sans, Arial, sans-serif" font-size="18" fill="#6b7787" text-anchor="end">×</text><rect x="816" y="510" width="25.454545454545453" height="30" rx="7" fill="#fff" stroke="#e4e7ec"/><text x="828.7272727272727" y="530" font-family="DejaVu Sans, Arial, sans-serif" font-size="12" fill="#475467" text-anchor="middle" >0</text><rect x="845.4545454545455" y="510" width="25.454545454545453" height="30" rx="7" fill="#fff" stroke="#e4e7ec"/><text x="858.1818181818182" y="530" font-family="DejaVu Sans, Arial, sans-serif" font-size="12" fill="#475467" text-anchor="middle" >1</text><rect x="874.9090909090909" y="510" width="25.454545454545453" height="30" rx="7" fill="#fff" stroke="#e4e7ec"/><text x="887.6363636363636" y="530" font-family="DejaVu Sans, Arial, sans-serif" font-size="12" fill="#475467" text-anchor="middle" >2</text><rect x="904.3636363636364" y="510" width="25.454545454545453" height="30" rx="7" fill="#fff" stroke="#e4e7ec"/><text x="917.0909090909091" y="530" font-family="DejaVu Sans, Arial, sans-serif" font-size="12" fill="#475467" text-anchor="middle" >3</text><rect x="933.8181818181818" y="510" width="25.454545454545453" height="30" rx="7" fill="#fff" stroke="#e4e7ec"/><text x="946.5454545454545" y="530" font-family="DejaVu Sans, Arial, sans-serif" font-size="12" fill="#475467" text-anchor="middle" >4</text><rect x="963.2727272727273" y="510" width="25.454545454545453" height="30" rx="7" fill="#fff" stroke="#e4e7ec"/><text x="976" y="530" font-family="DejaVu Sans, Arial, sans-serif" font-size="12" fill="#475467" text-anchor="middle" >5</text><rect x="992.7272727272727" y="510" width="25.454545454545453" height="30" rx="7" fill="#fff" stroke="#e4e7ec"/><text x="1005.4545454545455" y="530" font-family="DejaVu Sans, Arial, sans-serif" font-size="12" fill="#475467" text-anchor="middle" >6</text><rect x="1022.1818181818182" y="510" width="25.454545454545453" height="30" rx="7" fill="#fff" stroke="#e4e7ec"/><text x="1034.909090909091" y="530" font-family="DejaVu Sans, Arial, sans-serif" font-size="12" fill="#475467" text-anchor="middle" >7</text><rect x="1051.6363636363635" y="510" width="25.454545454545453" height="30" rx="7" fill="#fff" stroke="#e4e7ec"/><text x="1064.3636363636363" y="530" font-family="DejaVu Sans, Arial, sans-serif" font-size="12" fill="#475467" text-anchor="middle" >8</text><rect x="1081.090909090909" y="510" width="25.454545454545453" height="30" rx="7" fill="#1fa97a" stroke="#1fa97a"/><text x="1093.8181818181818" y="530" font-family="DejaVu Sans, Arial, sans-serif" font-size="12" fill="#fff" text-anchor="middle" font-weight="bold">9</text><rect x="1110.5454545454545" y="510" width="25.454545454545453" height="30" rx="7" fill="#fff" stroke="#e4e7ec"/><text x="1123.2727272727273" y="530" font-family="DejaVu Sans, Arial, sans-serif" font-size="12" fill="#475467" text-anchor="middle" >10</text><text x="816" y="560" font-family="DejaVu Sans, Arial, sans-serif" font-size="11" fill="#6b7787">Not likely</text><text x="1136" y="560" font-family="DejaVu Sans, Arial, sans-serif" font-size="11" fill="#6b7787" text-anchor="end">Very likely</text><text x="816" y="592" font-family="DejaVu Sans, Arial, sans-serif" font-size="12.5" font-weight="bold" fill="#16202c">What's the most important reason?</text></svg>